<svg width="17" height="17" viewBox="0 0 17 17" fill="none" xmlns="http://www.w3.org/2000/svg">
<path d="M15.0438 3.81125C14.8125 3.5125 14.365 3.15625 13.5625 3.15625C12.5094 3.15625 11.1588 3.86125 9.94938 5.04125C9.60361 5.3764 9.28607 5.73951 9.00001 6.12687V4.15625C9.00001 4.02364 8.94733 3.89646 8.85356 3.8027C8.75979 3.70893 8.63262 3.65625 8.50001 3.65625C8.3674 3.65625 8.24022 3.70893 8.14645 3.8027C8.05269 3.89646 8.00001 4.02364 8.00001 4.15625V6.12687C7.71474 5.7396 7.39805 5.3765 7.05313 5.04125C5.84313 3.86125 4.49251 3.15625 3.43751 3.15625C2.63501 3.15625 2.18751 3.5125 1.95626 3.81125C1.53001 4.35938 1.19501 5.31625 1.94313 8.26125C2.32126 9.75063 3.16251 10.3238 3.85751 10.5375C3.4785 11.1529 3.35701 11.8928 3.51934 12.5971C3.68166 13.3015 4.11474 13.9136 4.72488 14.301C5.33503 14.6885 6.07319 14.8202 6.77968 14.6676C7.48616 14.515 8.10417 14.0904 8.50001 13.4856C8.89585 14.0904 9.51385 14.515 10.2203 14.6676C10.9268 14.8202 11.665 14.6885 12.2751 14.301C12.8853 13.9136 13.3184 13.3015 13.4807 12.5971C13.643 11.8928 13.5215 11.1529 13.1425 10.5375C13.8375 10.325 14.6781 9.75063 15.0569 8.26125C15.4769 6.60875 15.8031 4.7875 15.0438 3.81125ZM6.25001 13.6562C5.80631 13.6485 5.38199 13.4731 5.06222 13.1654C4.74245 12.8577 4.55092 12.4405 4.52608 11.9974C4.50124 11.5543 4.64492 11.1183 4.92828 10.7768C5.21165 10.4353 5.61371 10.2136 6.05376 10.1562C6.11994 10.1502 6.18425 10.131 6.24294 10.0998C6.30162 10.0686 6.35349 10.026 6.39552 9.97453C6.43755 9.92305 6.46889 9.8637 6.48772 9.79997C6.50655 9.73623 6.51248 9.66938 6.50516 9.60332C6.49785 9.53726 6.47744 9.47333 6.44513 9.41525C6.41282 9.35717 6.36926 9.30612 6.31699 9.26507C6.26471 9.22403 6.20478 9.19382 6.1407 9.17621C6.07662 9.15859 6.00966 9.15393 5.94376 9.1625C5.47634 9.21263 5.02982 9.38271 4.64751 9.65625C4.12063 9.66187 3.27251 9.43313 2.91251 8.015C2.73251 7.30562 2.18751 5.1475 2.74626 4.425C2.83563 4.31 3.00563 4.15625 3.43751 4.15625C5.14188 4.15625 8.00001 6.96125 8.00001 8.63562V11.9062C8.00001 12.3704 7.81563 12.8155 7.48744 13.1437C7.15926 13.4719 6.71414 13.6562 6.25001 13.6562ZM14.0875 8.015C13.7269 9.43313 12.8794 9.66125 12.3519 9.65625C11.9699 9.3815 11.5234 9.21032 11.0556 9.15938C10.9897 9.15081 10.9228 9.15547 10.8587 9.17308C10.7946 9.19069 10.7347 9.2209 10.6824 9.26195C10.6301 9.30299 10.5866 9.35405 10.5543 9.41212C10.5219 9.4702 10.5015 9.53414 10.4942 9.60019C10.4869 9.66625 10.4928 9.7331 10.5117 9.79684C10.5305 9.86058 10.5618 9.91993 10.6039 9.97141C10.6459 10.0229 10.6978 10.0655 10.7565 10.0967C10.8151 10.1279 10.8794 10.1471 10.9456 10.1531C11.2828 10.1896 11.6023 10.3228 11.8654 10.5368C12.1285 10.7508 12.3241 11.0364 12.4285 11.3591C12.5328 11.6818 12.5416 12.0278 12.4537 12.3553C12.3657 12.6829 12.1849 12.978 11.9329 13.205C11.681 13.432 11.3687 13.5813 11.0338 13.6347C10.6988 13.6882 10.3556 13.6436 10.0455 13.5062C9.7354 13.3689 9.47167 13.1448 9.28615 12.8609C9.10063 12.5769 9.00125 12.2454 9.00001 11.9062V8.63562C9.00001 6.96125 11.8556 4.15625 13.5625 4.15625C13.9969 4.15625 14.1663 4.31 14.2563 4.425C14.8156 5.1475 14.2675 7.30562 14.0875 8.015Z" fill="white"/>
</svg>
