<svg width="120" height="24" viewBox="0 0 120 24" fill="none" xmlns="http://www.w3.org/2000/svg">
<g clip-path="url(#clip0_1901_25726)">
<path d="M17.171 17.3626L16.7676 23.4153H0L11.9494 1.42222H7.20726C5.49061 1.42222 4.2894 1.68088 3.60363 2.19596C3.03888 2.61432 2.53688 3.77043 2.09539 5.66429H1.25051L1.72786 0.203125H17.1755L5.2665 22.2007L10.6675 22.1962C12.3572 22.1962 13.6436 21.8701 14.5243 21.2178C15.4051 20.5655 16.0303 19.2812 16.3979 17.3626H17.1688H17.171Z" fill="#A58D78"/>
<path d="M99.9664 23.2903L95.1929 23.1486L90.1752 23.2903V22.1275C91.3921 21.9408 92.2325 21.6574 92.7009 21.2818C92.8174 21.1648 92.9295 20.9129 93.0348 20.526C93.1401 20.1391 93.1917 19.4284 93.1917 18.396V16.0005V10.0828C93.1917 8.83894 93.1558 7.80429 93.0863 6.98331C93.0169 6.16234 92.8869 5.46957 92.7009 4.90501C92.3961 3.96707 91.9748 3.26081 91.4369 2.79072C90.8991 2.32063 90.1842 2.08671 89.2967 2.08671C88.2434 2.08671 87.3425 2.2689 86.594 2.63327C85.8455 2.99765 85.2359 3.57796 84.7697 4.37644C83.9271 5.8317 83.5058 7.91 83.5058 10.6113V18.396C83.5058 19.8512 83.6739 20.7914 84.0078 21.2143C84.27 21.5427 85.1081 21.8486 86.5223 22.1297V23.2926L81.6793 23.1509L76.731 23.2926V22.1297C77.9479 21.943 78.7883 21.6596 79.2567 21.284C79.3733 21.167 79.4853 20.9151 79.5906 20.5283C79.696 20.1414 79.7475 19.4306 79.7475 18.3982V16.0028V10.2964L79.6063 5.61127C79.6063 4.60136 79.3486 3.93334 78.8354 3.6027C78.3446 3.22707 77.6432 3.04039 76.7266 3.04039V1.87528C77.6633 1.73358 78.6225 1.5109 79.6063 1.205C80.1778 1.04081 80.7717 0.829379 81.388 0.568467C81.7533 0.426764 82.1634 0.240077 82.6228 0.00390625C82.8088 0.995823 82.95 1.87978 83.0441 2.65352C83.1382 3.42726 83.1853 4.25048 83.1853 5.11869C84.8459 1.9495 87.1498 0.363785 90.099 0.363785C92.5776 0.363785 94.3324 0.991324 95.3632 2.24865C96.3919 3.50598 96.9073 5.58878 96.9073 8.4993V16.0005V18.396C96.9073 19.804 97.0821 20.7442 97.434 21.2143C97.7612 21.5427 98.6038 21.8486 99.9597 22.1297V23.2926L99.9664 23.2903Z" fill="#A58D78"/>
<path d="M36.8791 18.9338C34.7389 21.8353 32.0833 23.2861 28.9099 23.2861C27.4241 23.2861 26.0772 23.0117 24.8693 22.4606C23.6614 21.9118 22.6215 21.1358 21.7542 20.1371C20.8847 19.1385 20.2124 17.9396 19.7328 16.5473C19.2554 15.1528 19.0156 13.6098 19.0156 11.9206C19.0156 10.2315 19.2666 8.60975 19.7709 7.14549C20.2729 5.68123 20.9855 4.42615 21.9044 3.38475C22.8232 2.34335 23.9191 1.52688 25.1898 0.933077C26.4627 0.341526 27.8521 0.046875 29.3649 0.046875C31.8076 0.046875 33.6968 0.786876 35.0303 2.26463C36.3659 3.74463 37.0315 5.86342 37.0315 8.62324C37.0315 9.01911 36.9621 9.25753 36.8231 9.343C36.6842 9.42847 36.3637 9.46896 35.8617 9.46896H23.435C23.3835 9.69388 23.3454 9.96829 23.3207 10.2922C23.2961 10.6161 23.2826 10.976 23.2826 11.3696C23.2826 12.8338 23.4395 14.1654 23.7555 15.362C24.0692 16.5586 24.5242 17.5797 25.1158 18.4255C25.7074 19.2712 26.4134 19.9257 27.2314 20.389C28.0494 20.8546 28.9637 21.0863 29.9699 21.0863C31.0277 21.0863 32.0093 20.8254 32.9147 20.3036C33.8223 19.784 34.7524 18.9293 35.7116 17.7462L36.8814 18.9293L36.8791 18.9338ZM30.6467 7.52561C31.151 7.52561 31.5544 7.51212 31.8569 7.48288C32.1595 7.45589 32.3858 7.39965 32.536 7.31418C32.6861 7.22871 32.787 7.1095 32.8385 6.95431C32.8901 6.79911 32.9147 6.59443 32.9147 6.34026C32.9147 5.0447 32.5449 4.01004 31.8009 3.23405C31.0569 2.46031 30.0439 2.0712 28.7598 2.0712C26.0414 2.0712 24.3538 3.88858 23.6994 7.52111H30.649L30.6467 7.52561Z" fill="#A58D78"/>
<path d="M74.5666 18.9338C72.4264 21.8353 69.7708 23.2861 66.5974 23.2861C65.1116 23.2861 63.7647 23.0117 62.5568 22.4606C61.3489 21.9118 60.309 21.1358 59.4417 20.1371C58.5722 19.1385 57.8999 17.9396 57.4203 16.5473C56.9429 15.1528 56.7031 13.6098 56.7031 11.9206C56.7031 10.2315 56.9541 8.60975 57.4584 7.14549C57.9604 5.68123 58.673 4.42615 59.5919 3.38475C60.5107 2.34335 61.6066 1.52688 62.8773 0.933077C64.1502 0.341526 65.5396 0.046875 67.0524 0.046875C69.4951 0.046875 71.3843 0.786876 72.7178 2.26463C74.0534 3.74463 74.719 5.86342 74.719 8.62324C74.719 9.01911 74.6496 9.25753 74.5106 9.343C74.3717 9.42847 74.0512 9.46896 73.5492 9.46896H61.1225C61.071 9.69388 61.0329 9.96829 61.0082 10.2922C60.9836 10.6161 60.9701 10.976 60.9701 11.3696C60.9701 12.8338 61.127 14.1654 61.443 15.362C61.7567 16.5586 62.2117 17.5797 62.8033 18.4255C63.3949 19.2712 64.1009 19.9257 64.9189 20.389C65.7369 20.8546 66.6512 21.0863 67.6574 21.0863C68.7152 21.0863 69.6968 20.8254 70.6022 20.3036C71.5098 19.784 72.4399 18.9293 73.3991 17.7462L74.5689 18.9293L74.5666 18.9338ZM68.3342 7.52561C68.8385 7.52561 69.2419 7.51212 69.5444 7.48288C69.847 7.45589 70.0733 7.39965 70.2235 7.31418C70.3736 7.22871 70.4745 7.1095 70.526 6.95431C70.5776 6.79911 70.6022 6.59443 70.6022 6.34026C70.6022 5.0447 70.2324 4.01004 69.4884 3.23405C68.7444 2.46031 67.7314 2.0712 66.4473 2.0712C63.7289 2.0712 62.0413 3.88858 61.387 7.52111H68.3365L68.3342 7.52561Z" fill="#A58D78"/>
<path d="M119.848 18.9338C117.708 21.8353 115.052 23.2861 111.879 23.2861C110.393 23.2861 109.046 23.0117 107.838 22.4606C106.63 21.9118 105.59 21.1358 104.723 20.1371C103.853 19.1385 103.181 17.9396 102.702 16.5473C102.224 15.1528 101.984 13.6098 101.984 11.9206C101.984 10.2315 102.235 8.60975 102.74 7.14549C103.242 5.68123 103.954 4.42615 104.873 3.38475C105.792 2.34335 106.888 1.52688 108.159 0.933077C109.431 0.341526 110.821 0.046875 112.334 0.046875C114.776 0.046875 116.666 0.786876 117.999 2.26463C119.335 3.74463 120 5.86342 120 8.62324C120 9.01911 119.931 9.25753 119.792 9.343C119.653 9.42847 119.332 9.46896 118.83 9.46896H106.404C106.352 9.69388 106.314 9.96829 106.289 10.2922C106.265 10.6161 106.251 10.976 106.251 11.3696C106.251 12.8338 106.408 14.1654 106.724 15.362C107.038 16.5586 107.493 17.5797 108.085 18.4255C108.676 19.2712 109.382 19.9257 110.2 20.389C111.018 20.8546 111.932 21.0863 112.939 21.0863C113.996 21.0863 114.978 20.8254 115.883 20.3036C116.791 19.784 117.721 18.9293 118.68 17.7462L119.85 18.9293L119.848 18.9338ZM113.616 7.52561C114.12 7.52561 114.523 7.51212 114.826 7.48288C115.128 7.45589 115.355 7.39965 115.505 7.31418C115.655 7.22871 115.756 7.1095 115.807 6.95431C115.859 6.79911 115.883 6.59443 115.883 6.34026C115.883 5.0447 115.514 4.01004 114.77 3.23405C114.026 2.46031 113.013 2.0712 111.729 2.0712C109.01 2.0712 107.323 3.88858 106.668 7.52111H113.618L113.616 7.52561Z" fill="#A58D78"/>
<path d="M45.9334 17.3891C45.9558 18.525 46.0298 19.6699 46.3032 20.7428C46.3727 21.0194 46.4713 21.3028 46.6842 21.4918C46.8388 21.629 47.0405 21.6987 47.2377 21.7594C47.9683 21.9866 48.7235 22.126 49.4877 22.18C49.4877 22.5511 49.4855 22.92 49.4833 23.2911C46.2023 23.2911 42.9214 23.2911 39.6405 23.2911H39.1878V21.8044C39.9363 21.7774 40.5302 21.6987 40.9672 21.5705C41.4065 21.4445 41.7426 21.2106 41.9735 20.871C42.2065 20.5313 42.3522 20.0432 42.4194 19.4045C42.6346 17.3149 42.6144 15.2119 42.5696 13.1156C42.5404 11.7098 42.5315 10.3018 42.5023 8.89598C42.4799 7.87707 42.4889 6.84692 42.2962 5.84376C42.1169 4.90807 41.7202 4.29853 40.9 3.79919C40.6714 3.65974 39.9363 3.21439 39.1094 3.21439V2.05603L45.0056 0.191406L45.604 5.65482C46.2741 4.24454 46.8679 2.74655 48.1476 1.77038C49.3533 0.850435 51.0318 0.308367 52.5468 0.578276C53.8063 0.803201 55.0814 1.71864 55.0814 3.11317C55.0814 3.79245 54.9604 4.2288 54.6825 4.5347C53.9833 5.30844 53.1608 5.1195 52.5132 4.40199C52.1053 3.94989 51.7781 3.44606 51.3926 2.98272C50.3416 1.72314 49.3085 2.53512 49.1 2.63858C48.4479 2.96248 47.2646 4.25579 46.7581 5.34443C46.1217 6.71197 46.0993 8.39215 46.0275 9.87665C45.9424 11.7345 45.8953 13.5969 45.9155 15.457C45.9222 16.0891 45.92 16.7368 45.9312 17.3891H45.9334Z" fill="#A58D78"/>
</g>
<defs>
<clipPath id="clip0_1901_25726">
<rect width="120" height="23.4146" fill="white"/>
</clipPath>
</defs>
</svg>
