<svg width="120" height="24" viewBox="0 0 120 24" fill="none" xmlns="http://www.w3.org/2000/svg">
<g clip-path="url(#clip0_8808_518)">
<path d="M17.171 17.6595L16.7676 23.7122H0L11.9494 1.71909H7.20726C5.49061 1.71909 4.2894 1.97775 3.60363 2.49283C3.03888 2.91119 2.53688 4.0673 2.09539 5.96117H1.25051L1.72786 0.5H17.1755L5.2665 22.4976L10.6675 22.4931C12.3572 22.4931 13.6436 22.167 14.5243 21.5147C15.4051 20.8624 16.0303 19.5781 16.3979 17.6595H17.1688H17.171Z" fill="#FBF0E2"/>
<path d="M99.9664 23.5833L95.1929 23.4416L90.1752 23.5833V22.4204C91.3921 22.2338 92.2325 21.9504 92.7009 21.5747C92.8174 21.4578 92.9295 21.2059 93.0348 20.819C93.1401 20.4321 93.1917 19.7214 93.1917 18.6889V16.2935V10.3757C93.1917 9.13191 93.1558 8.09725 93.0863 7.27628C93.0169 6.45531 92.8869 5.76254 92.7009 5.19798C92.3961 4.26004 91.9748 3.55378 91.4369 3.08369C90.8991 2.6136 90.1842 2.37968 89.2967 2.37968C88.2434 2.37968 87.3425 2.56186 86.594 2.92624C85.8455 3.29062 85.2359 3.87092 84.7697 4.66941C83.9271 6.12467 83.5058 8.20297 83.5058 10.9043V18.6889C83.5058 20.1442 83.6739 21.0844 84.0078 21.5073C84.27 21.8356 85.1081 22.1415 86.5223 22.4227V23.5856L81.6793 23.4438L76.731 23.5856V22.4227C77.9479 22.236 78.7883 21.9526 79.2567 21.577C79.3733 21.46 79.4853 21.2081 79.5906 20.8212C79.696 20.4344 79.7475 19.7236 79.7475 18.6912V16.2958V10.5894L79.6063 5.90424C79.6063 4.89433 79.3486 4.22631 78.8354 3.89567C78.3446 3.52004 77.6432 3.33335 76.7266 3.33335V2.16825C77.6633 2.02654 78.6225 1.80387 79.6063 1.49797C80.1778 1.33378 80.7717 1.12235 81.388 0.861435C81.7533 0.719733 82.1634 0.533046 82.6228 0.296875C82.8088 1.28879 82.95 2.17274 83.0441 2.94648C83.1382 3.72023 83.1853 4.54345 83.1853 5.41166C84.8459 2.24247 87.1498 0.656754 90.099 0.656754C92.5776 0.656754 94.3324 1.28429 95.3632 2.54162C96.3919 3.79895 96.9073 5.88175 96.9073 8.79227V16.2935V18.6889C96.9073 20.097 97.0821 21.0372 97.434 21.5073C97.7612 21.8356 98.6038 22.1415 99.9597 22.4227V23.5856L99.9664 23.5833Z" fill="#FBF0E2"/>
<path d="M36.8791 19.2307C34.7389 22.1322 32.0833 23.5829 28.9099 23.5829C27.4241 23.5829 26.0772 23.3085 24.8693 22.7575C23.6614 22.2087 22.6215 21.4327 21.7542 20.434C20.8847 19.4353 20.2124 18.2365 19.7328 16.8442C19.2554 15.4497 19.0156 13.9067 19.0156 12.2175C19.0156 10.5283 19.2666 8.90662 19.7709 7.44237C20.2729 5.97811 20.9855 4.72303 21.9044 3.68163C22.8232 2.64023 23.9191 1.82375 25.1898 1.22995C26.4627 0.638401 27.8521 0.34375 29.3649 0.34375C31.8076 0.34375 33.6968 1.08375 35.0303 2.56151C36.3659 4.04151 37.0315 6.1603 37.0315 8.92012C37.0315 9.31599 36.9621 9.55441 36.8231 9.63988C36.6842 9.72535 36.3637 9.76584 35.8617 9.76584H23.435C23.3835 9.99076 23.3454 10.2652 23.3207 10.5891C23.2961 10.913 23.2826 11.2728 23.2826 11.6664C23.2826 13.1307 23.4395 14.4623 23.7555 15.6589C24.0692 16.8555 24.5242 17.8766 25.1158 18.7223C25.7074 19.568 26.4134 20.2226 27.2314 20.6859C28.0494 21.1515 28.9637 21.3832 29.9699 21.3832C31.0277 21.3832 32.0093 21.1223 32.9147 20.6004C33.8223 20.0809 34.7524 19.2262 35.7116 18.0431L36.8814 19.2262L36.8791 19.2307ZM30.6467 7.82249C31.151 7.82249 31.5544 7.80899 31.8569 7.77975C32.1595 7.75276 32.3858 7.69653 32.536 7.61106C32.6861 7.52559 32.787 7.40638 32.8385 7.25118C32.8901 7.09598 32.9147 6.8913 32.9147 6.63714C32.9147 5.34157 32.5449 4.30692 31.8009 3.53093C31.0569 2.75719 30.0439 2.36807 28.7598 2.36807C26.0414 2.36807 24.3538 4.18546 23.6994 7.81799H30.649L30.6467 7.82249Z" fill="#FBF0E2"/>
<path d="M74.5666 19.2307C72.4264 22.1322 69.7708 23.5829 66.5974 23.5829C65.1116 23.5829 63.7647 23.3085 62.5568 22.7575C61.3489 22.2087 60.309 21.4327 59.4417 20.434C58.5722 19.4353 57.8999 18.2365 57.4203 16.8442C56.9429 15.4497 56.7031 13.9067 56.7031 12.2175C56.7031 10.5283 56.9541 8.90662 57.4584 7.44237C57.9604 5.97811 58.673 4.72303 59.5919 3.68163C60.5107 2.64023 61.6066 1.82375 62.8773 1.22995C64.1502 0.638401 65.5396 0.34375 67.0524 0.34375C69.4951 0.34375 71.3843 1.08375 72.7178 2.56151C74.0534 4.04151 74.719 6.1603 74.719 8.92012C74.719 9.31599 74.6496 9.55441 74.5106 9.63988C74.3717 9.72535 74.0512 9.76584 73.5492 9.76584H61.1225C61.071 9.99076 61.0329 10.2652 61.0082 10.5891C60.9836 10.913 60.9701 11.2728 60.9701 11.6664C60.9701 13.1307 61.127 14.4623 61.443 15.6589C61.7567 16.8555 62.2117 17.8766 62.8033 18.7223C63.3949 19.568 64.1009 20.2226 64.9189 20.6859C65.7369 21.1515 66.6512 21.3832 67.6574 21.3832C68.7152 21.3832 69.6968 21.1223 70.6022 20.6004C71.5098 20.0809 72.4399 19.2262 73.3991 18.0431L74.5689 19.2262L74.5666 19.2307ZM68.3342 7.82249C68.8385 7.82249 69.2419 7.80899 69.5444 7.77975C69.847 7.75276 70.0733 7.69653 70.2235 7.61106C70.3736 7.52559 70.4745 7.40638 70.526 7.25118C70.5776 7.09598 70.6022 6.8913 70.6022 6.63714C70.6022 5.34157 70.2324 4.30692 69.4884 3.53093C68.7444 2.75719 67.7314 2.36807 66.4473 2.36807C63.7289 2.36807 62.0413 4.18546 61.387 7.81799H68.3365L68.3342 7.82249Z" fill="#FBF0E2"/>
<path d="M119.848 19.2307C117.708 22.1322 115.052 23.5829 111.879 23.5829C110.393 23.5829 109.046 23.3085 107.838 22.7575C106.63 22.2087 105.59 21.4327 104.723 20.434C103.853 19.4353 103.181 18.2365 102.702 16.8442C102.224 15.4497 101.984 13.9067 101.984 12.2175C101.984 10.5283 102.235 8.90662 102.74 7.44237C103.242 5.97811 103.954 4.72303 104.873 3.68163C105.792 2.64023 106.888 1.82375 108.159 1.22995C109.431 0.638401 110.821 0.34375 112.334 0.34375C114.776 0.34375 116.666 1.08375 117.999 2.56151C119.335 4.04151 120 6.1603 120 8.92012C120 9.31599 119.931 9.55441 119.792 9.63988C119.653 9.72535 119.332 9.76584 118.83 9.76584H106.404C106.352 9.99076 106.314 10.2652 106.289 10.5891C106.265 10.913 106.251 11.2728 106.251 11.6664C106.251 13.1307 106.408 14.4623 106.724 15.6589C107.038 16.8555 107.493 17.8766 108.085 18.7223C108.676 19.568 109.382 20.2226 110.2 20.6859C111.018 21.1515 111.932 21.3832 112.939 21.3832C113.996 21.3832 114.978 21.1223 115.883 20.6004C116.791 20.0809 117.721 19.2262 118.68 18.0431L119.85 19.2262L119.848 19.2307ZM113.616 7.82249C114.12 7.82249 114.523 7.80899 114.826 7.77975C115.128 7.75276 115.355 7.69653 115.505 7.61106C115.655 7.52559 115.756 7.40638 115.807 7.25118C115.859 7.09598 115.883 6.8913 115.883 6.63714C115.883 5.34157 115.514 4.30692 114.77 3.53093C114.026 2.75719 113.013 2.36807 111.729 2.36807C109.01 2.36807 107.323 4.18546 106.668 7.81799H113.618L113.616 7.82249Z" fill="#FBF0E2"/>
<path d="M45.9334 17.6821C45.9558 18.818 46.0298 19.9628 46.3032 21.0357C46.3727 21.3124 46.4713 21.5958 46.6842 21.7847C46.8388 21.9219 47.0405 21.9916 47.2377 22.0524C47.9683 22.2796 48.7235 22.419 49.4877 22.473C49.4877 22.8441 49.4855 23.213 49.4833 23.5841C46.2023 23.5841 42.9214 23.5841 39.6405 23.5841H39.1878V22.0974C39.9363 22.0704 40.5302 21.9917 40.9672 21.8634C41.4065 21.7375 41.7426 21.5036 41.9735 21.1639C42.2065 20.8243 42.3522 20.3362 42.4194 19.6974C42.6346 17.6079 42.6144 15.5048 42.5696 13.4085C42.5404 12.0028 42.5315 10.5947 42.5023 9.18895C42.4799 8.17004 42.4889 7.13989 42.2962 6.13673C42.1169 5.20104 41.7202 4.5915 40.9 4.09216C40.6714 3.95271 39.9363 3.50736 39.1094 3.50736V2.349L45.0056 0.484375L45.604 5.94779C46.2741 4.53751 46.8679 3.03952 48.1476 2.06334C49.3533 1.1434 51.0318 0.601336 52.5468 0.871245C53.8063 1.09617 55.0814 2.01161 55.0814 3.40614C55.0814 4.08542 54.9604 4.52177 54.6825 4.82767C53.9833 5.60141 53.1608 5.41247 52.5132 4.69496C52.1053 4.24286 51.7781 3.73903 51.3926 3.27569C50.3416 2.01611 49.3085 2.82809 49.1 2.93155C48.4479 3.25544 47.2646 4.54876 46.7581 5.63739C46.1217 7.00493 46.0993 8.68512 46.0275 10.1696C45.9424 12.0275 45.8953 13.8899 45.9155 15.75C45.9222 16.382 45.92 17.0298 45.9312 17.6821H45.9334Z" fill="#FBF0E2"/>
</g>
<defs>
<clipPath id="clip0_8808_518">
<rect width="120" height="23.4146" fill="white" transform="translate(0 0.292969)"/>
</clipPath>
</defs>
</svg>
